<svg xmlns="http://www.w3.org/2000/svg" viewBox="0 0 1200 630" width="1200" height="630"><style>@keyframes nl-in{0%{opacity:0}3%{opacity:1}84%{opacity:1}90%{opacity:0}100%{opacity:0}}@keyframes nl-spot{0%,30%{stroke-width:1.5}33%{stroke-width:6}39%{stroke-width:1.5}100%{stroke-width:1.5}}@keyframes nl-flow{to{stroke-dashoffset:-40}}@keyframes nl-pulse{0%,100%{opacity:1}50%{opacity:.35}}@keyframes nl-blink{0%,100%{opacity:1}50%{opacity:.15}}@keyframes nl-glow{0%,100%{stroke-width:1.5}50%{stroke-width:4.5}}.in{opacity:0;animation:nl-in 12s ease-out infinite}.in.spot{animation:nl-in 12s ease-out infinite,nl-spot 12s ease-in-out infinite}.in.flow{stroke-dasharray:12 8;animation:nl-in 12s ease-out infinite,nl-flow 1.2s linear infinite}.in.pulse{animation:nl-in 12s ease-out infinite,nl-pulse 2s ease-in-out infinite}.in.blink{animation:nl-in 12s ease-out infinite,nl-blink 1.2s ease-in-out infinite}.in.glow{animation:nl-in 12s ease-out infinite,nl-glow 2.2s ease-in-out infinite}@media(prefers-reduced-motion:reduce){.in,.in.spot,.in.flow,.in.pulse,.in.blink,.in.glow{opacity:1;animation:none}animateMotion{display:none}}</style><rect width="1200" height="630" fill="#1b2a32"/><g stroke="#34495a" stroke-width="1" opacity="0.28"><line x1="0" y1="0" x2="0" y2="630"/><line x1="80" y1="0" x2="80" y2="630"/><line x1="160" y1="0" x2="160" y2="630"/><line x1="240" y1="0" x2="240" y2="630"/><line x1="320" y1="0" x2="320" y2="630"/><line x1="400" y1="0" x2="400" y2="630"/><line x1="480" y1="0" x2="480" y2="630"/><line x1="560" y1="0" x2="560" y2="630"/><line x1="640" y1="0" x2="640" y2="630"/><line x1="720" y1="0" x2="720" y2="630"/><line x1="800" y1="0" x2="800" y2="630"/><line x1="880" y1="0" x2="880" y2="630"/><line x1="960" y1="0" x2="960" y2="630"/><line x1="1040" y1="0" x2="1040" y2="630"/><line x1="1120" y1="0" x2="1120" y2="630"/><line x1="1200" y1="0" x2="1200" y2="630"/><line x1="0" y1="0" x2="1200" y2="0"/><line x1="0" y1="80" x2="1200" y2="80"/><line x1="0" y1="160" x2="1200" y2="160"/><line x1="0" y1="240" x2="1200" y2="240"/><line x1="0" y1="320" x2="1200" y2="320"/><line x1="0" y1="400" x2="1200" y2="400"/><line x1="0" y1="480" x2="1200" y2="480"/><line x1="0" y1="560" x2="1200" y2="560"/></g><text class="in" style="animation-delay:0.00s" x="600" y="64" font-family="Outfit, Segoe UI, system-ui, sans-serif" font-size="13" fill="#49afd9" text-anchor="middle" font-weight="600" letter-spacing="3">HUB AND SPOKE &#183; ONE WAY BY CONSTRUCTION</text><text class="in" style="animation-delay:0.00s" x="600" y="116" font-family="Outfit, Segoe UI, system-ui, sans-serif" font-size="40" fill="#e9eef2" text-anchor="middle" font-weight="700">Shared services for isolated tenants</text><rect class="in spot" style="animation-delay:0.10s" x="450" y="180" width="300" height="110" rx="8" fill="#22343c" stroke="#b58ad6" stroke-width="1.5"/><rect class="in" style="animation-delay:0.10s" x="450" y="180" width="300" height="4" rx="2" fill="#b58ad6"/><text class="in" style="animation-delay:0.10s" x="600" y="220" font-family="Outfit, Segoe UI, system-ui, sans-serif" font-size="18" fill="#e9eef2" text-anchor="middle" font-weight="600">shared-svc VPC</text><text class="in" style="animation-delay:0.10s" x="600" y="246" font-family="JetBrains Mono, Cascadia Mono, Consolas, monospace" font-size="13" fill="#b58ad6" text-anchor="middle" font-weight="400">sn-services  accessMode: PrivateTGW</text><text class="in" style="animation-delay:0.10s" x="600" y="270" font-family="JetBrains Mono, Cascadia Mono, Consolas, monospace" font-size="13" fill="#8fa1ad" text-anchor="middle" font-weight="400">svc-repo01  172.31.0.2</text><rect class="in glow" style="animation-delay:0.20s" x="500" y="340" width="200" height="56" rx="28" fill="#22343c" stroke="#49afd9" stroke-width="1.5"/><text class="in" style="animation-delay:0.20s" x="600" y="366" font-family="Outfit, Segoe UI, system-ui, sans-serif" font-size="15" fill="#49afd9" text-anchor="middle" font-weight="600">transit gateway</text><text class="in" style="animation-delay:0.20s" x="600" y="386" font-family="Outfit, Segoe UI, system-ui, sans-serif" font-size="11" fill="#8fa1ad" text-anchor="middle" font-weight="400">SNAT per VPC</text><line class="in flow" style="animation-delay:0.20s" x1="600" y1="340" x2="600" y2="292" stroke="#49afd9" stroke-width="2.5"/><polygon class="in" style="animation-delay:0.20s" transform="rotate(-90.0 600 292)" points="600,292 591,287 591,297" fill="#49afd9"/><g class="in" style="animation-delay:0.20s"><circle r="4" fill="#49afd9"><animateMotion dur="0.90s" begin="0.20s" repeatCount="indefinite" path="M 600 340 L 600 292"/></circle></g><rect class="in spot" style="animation-delay:0.30s" x="140" y="470" width="250" height="90" rx="12" fill="#22343c" stroke="#49afd9" stroke-width="1.5" stroke-dasharray="8 6"/><text class="in" style="animation-delay:0.30s" x="160" y="502" font-family="Outfit, Segoe UI, system-ui, sans-serif" font-size="16" fill="#49afd9" text-anchor="start" font-weight="600">pod a</text><text class="in" style="animation-delay:0.30s" x="160" y="526" font-family="JetBrains Mono, Cascadia Mono, Consolas, monospace" font-size="12" fill="#8fa1ad" text-anchor="start" font-weight="400">172.30.0.40 &#8594; 172.31.0.2  200 OK</text><line class="in flow" style="animation-delay:0.30s" x1="265" y1="470" x2="560" y2="398" stroke="#49afd9" stroke-width="2.5"/><polygon class="in" style="animation-delay:0.30s" transform="rotate(-13.7 560 398)" points="560,398 551,393 551,403" fill="#49afd9"/><g class="in" style="animation-delay:0.30s"><circle r="4" fill="#49afd9"><animateMotion dur="2.17s" begin="0.30s" repeatCount="indefinite" path="M 265 470 L 560 398"/></circle></g><rect class="in spot" style="animation-delay:0.40s" x="510" y="470" width="250" height="90" rx="12" fill="#22343c" stroke="#5fb84a" stroke-width="1.5" stroke-dasharray="8 6"/><text class="in" style="animation-delay:0.40s" x="530" y="502" font-family="Outfit, Segoe UI, system-ui, sans-serif" font-size="16" fill="#5fb84a" text-anchor="start" font-weight="600">pod b</text><text class="in" style="animation-delay:0.40s" x="530" y="526" font-family="JetBrains Mono, Cascadia Mono, Consolas, monospace" font-size="12" fill="#8fa1ad" text-anchor="start" font-weight="400">172.30.0.40 &#8594; 172.31.0.2  200 OK</text><line class="in flow" style="animation-delay:0.40s" x1="635" y1="470" x2="600" y2="398" stroke="#5fb84a" stroke-width="2.5"/><polygon class="in" style="animation-delay:0.40s" transform="rotate(-115.9 600 398)" points="600,398 591,393 591,403" fill="#5fb84a"/><g class="in" style="animation-delay:0.40s"><circle r="4" fill="#5fb84a"><animateMotion dur="0.90s" begin="0.40s" repeatCount="indefinite" path="M 635 470 L 600 398"/></circle></g><rect class="in spot" style="animation-delay:0.50s" x="880" y="470" width="250" height="90" rx="12" fill="#22343c" stroke="#e8c34a" stroke-width="1.5" stroke-dasharray="8 6"/><text class="in" style="animation-delay:0.50s" x="900" y="502" font-family="Outfit, Segoe UI, system-ui, sans-serif" font-size="16" fill="#e8c34a" text-anchor="start" font-weight="600">pod c</text><text class="in" style="animation-delay:0.50s" x="900" y="526" font-family="JetBrains Mono, Cascadia Mono, Consolas, monospace" font-size="12" fill="#8fa1ad" text-anchor="start" font-weight="400">172.30.0.40 &#8594; 172.31.0.2  200 OK</text><line class="in flow" style="animation-delay:0.50s" x1="1005" y1="470" x2="640" y2="398" stroke="#e8c34a" stroke-width="2.5"/><polygon class="in" style="animation-delay:0.50s" transform="rotate(-168.8 640 398)" points="640,398 631,393 631,403" fill="#e8c34a"/><g class="in" style="animation-delay:0.50s"><circle r="4" fill="#e8c34a"><animateMotion dur="2.40s" begin="0.50s" repeatCount="indefinite" path="M 1005 470 L 640 398"/></circle></g><line class="in" style="animation-delay:0.50s" x1="720" y1="300" x2="930" y2="300" stroke="#e5605a" stroke-width="3" stroke-dasharray="8 6"/><g class="in" style="animation-delay:0.50s"><circle r="3" fill="#e5605a"><animateMotion dur="1.50s" begin="0.50s" repeatCount="indefinite" path="M 720 300 L 930 300"/></circle></g><line class="in blink" style="animation-delay:0.50s" x1="812" y1="282" x2="848" y2="318" stroke="#e5605a" stroke-width="5"/><line class="in blink" style="animation-delay:0.50s" x1="848" y1="282" x2="812" y2="318" stroke="#e5605a" stroke-width="5"/><text class="in" style="animation-delay:0.50s" x="945" y="296" font-family="JetBrains Mono, Cascadia Mono, Consolas, monospace" font-size="13" fill="#e5605a" text-anchor="start" font-weight="400">172.30.0.40</text><text class="in" style="animation-delay:0.50s" x="945" y="316" font-family="Outfit, Segoe UI, system-ui, sans-serif" font-size="11" fill="#8fa1ad" text-anchor="start" font-weight="400">hub &#8594; pod: no route</text><text class="in" style="animation-delay:0.50s" x="600" y="600" font-family="Outfit, Segoe UI, system-ui, sans-serif" font-size="14" fill="#8fa1ad" text-anchor="middle" font-weight="400">pods &#8594; service: yes &#183; service &#8594; pod: never &#183; pod &#8594; pod: never</text></svg>